Coordinates
version=1
nRows=5
nColumns=46
inDegrees=yes

Units are S.I. units (second, meters, Newtons, ...)
Angles are in degrees.

endheader
time	pelvis_tilt	pelvis_list	pelvis_rotation	pelvis_tx	pelvis_ty	pelvis_tz	bb_angle	bb_tx	bb_ty	bb_tz	hip_flexion_r	hip_adduction_r	hip_rotation_r	knee_angle_r	knee_angle_r_beta	ankle_angle_r	subtalar_angle_r	mtp_angle_r	crank_angle_r	hip_flexion_l	hip_adduction_l	hip_rotation_l	knee_angle_l	knee_angle_l_beta	ankle_angle_l	subtalar_angle_l	mtp_angle_l	crank_angle_l	lumbar_extension	lumbar_bending	lumbar_rotation	arm_flex_r	arm_add_r	arm_rot_r	elbow_flex_r	pro_sup_r	wrist_flex_r	wrist_dev_r	arm_flex_l	arm_add_l	arm_rot_l	elbow_flex_l	pro_sup_l	wrist_flex_l	wrist_dev_l
      0.00000000	    -23.91037656	     -5.06222833	     -2.93325497	      0.09870649	      1.12200547	     -0.23412188	      0.00000000	      0.50000000	      0.00000000	      0.25000000	     97.02242669	     -9.53913937	     -7.71764120	     97.57313356	      1.70297244	     28.22990721	      8.67432325	      0.00000000	      0.00000000	     58.80681586	    -17.84768337	     -8.75411917	     59.83345885	      1.04429086	     10.68383676	     12.01686194	      0.00000000	      0.00000000	    -47.38489690	      2.63122326	      6.97977877	     89.68790978	     -8.10950609	     29.47148610	     40.00321595	     21.27149962	      0.00000000	      0.00000000	     89.69732737	     -1.66345227	     26.62050099	     33.40509740	     20.25476736	      0.00000000	      0.00000000
      0.00500000	    -23.93797472	     -5.06061641	     -2.93837504	      0.09870725	      1.12195288	     -0.23411720	      0.00000000	      0.50000000	      0.00000000	      0.25000000	     97.05208396	     -9.53634646	     -7.71773597	     97.57253942	      1.70296207	     28.23138584	      8.69845845	      0.00000000	      0.00000000	     58.83933828	    -17.85639540	     -8.76060920	     59.84022517	      1.04440895	     10.66496775	     12.02340519	      0.00000000	      0.00000000	    -47.35994518	      2.63267448	      6.98884602	     89.68832787	     -8.06389894	     29.24657587	     39.55338915	     23.59574627	      0.00000000	      0.00000000	     89.69801802	     -1.50669428	     25.98039625	     32.95087813	     22.52205507	      0.00000000	      0.00000000
      0.01000000	    -23.95527324	     -5.07247265	     -2.94377219	      0.09868630	      1.12191664	     -0.23409078	      0.00000000	      0.50000000	      0.00000000	      0.25000000	     97.06636842	     -9.51729711	     -7.72036348	     97.56443983	      1.70282071	     28.21712725	      8.65741155	      0.00000000	      0.00000000	     58.86837541	    -17.87158692	     -8.75321143	     59.84491915	      1.04449088	     10.64361558	     12.05961374	      0.00000000	      0.00000000	    -47.32861385	      2.65318479	      6.94729282	     89.69117414	     -8.11481829	     29.67744499	     39.63640506	     23.25298921	      0.00000000	      0.00000000	     89.69660311	     -1.97182852	     27.36157817	     33.25361923	     21.32533361	      0.00000000	      0.00000000
      0.01500000	    -23.99303310	     -5.06938646	     -3.01466407	      0.09867848	      1.12174484	     -0.23382986	      0.00000000	      0.50000000	      0.00000000	      0.25000000	     97.14928032	     -9.43451438	     -7.72675263	     97.58503899	      1.70318023	     28.17373952	      8.62723540	      0.00000000	      0.00000000	     58.84858402	    -17.79434227	     -8.64414494	     59.75091954	      1.04285028	     10.67465377	     12.29669919	      0.00000000	      0.00000000	    -47.28745606	      2.64609077	      7.00442346	     89.69066953	     -8.04913719	     29.59002754	     39.45211668	     24.13517165	      0.00000000	      0.00000000	     89.69618711	     -1.89343304	     26.98030583	     32.98819607	     22.26771348	      0.00000000	      0.00000000
      0.02000000	    -23.93744687	     -5.06369307	     -2.95949909	      0.09852747	      1.12187744	     -0.23412155	      0.00000000	      0.50000000	      0.00000000	      0.25000000	     97.10023550	     -9.45659552	     -7.66466805	     97.59325258	      1.70332359	     28.20056841	      8.62908012	      0.00000000	      0.00000000	     58.86873714	    -17.88696846	     -8.70902008	     59.90347900	      1.04551294	     10.78704011	     12.18791655	      0.00000000	      0.00000000	    -47.35445351	      2.63290515	      7.02231914	     89.68731104	     -8.08444967	     29.29021095	     39.45928791	     24.57710767	      0.00000000	      0.00000000	     89.69183923	     -1.82513321	     26.72927587	     33.12079483	     22.76880244	      0.00000000	      0.00000000
